<svg xmlns="http://www.w3.org/2000/svg" version="1.1" xmlns:xlink="http://www.w3.org/1999/xlink" xmlns:svgjs="http://svgjs.com/svgjs" width="1440" height="560" preserveAspectRatio="none" viewBox="0 0 1440 560"><g mask="url(&quot;#SvgjsMask1694&quot;)" fill="none"><rect width="1440" height="560" x="0" y="0" fill="url(#SvgjsRadialGradient1695)"></rect><path d="M0 0L329.58 0L0 155.94z" fill="rgba(255, 255, 255, .1)"></path><path d="M0 155.94L329.58 0L709.25 0L0 287.13z" fill="rgba(255, 255, 255, .075)"></path><path d="M0 287.13L709.25 0L833.64 0L0 355.4z" fill="rgba(255, 255, 255, .05)"></path><path d="M0 355.4L833.64 0L1045.17 0L0 469.57z" fill="rgba(255, 255, 255, .025)"></path><path d="M1440 560L883.93 560L1440 323.85z" fill="rgba(0, 0, 0, .1)"></path><path d="M1440 323.85L883.93 560L495.04999999999995 560L1440 245.26000000000002z" fill="rgba(0, 0, 0, .075)"></path><path d="M1440 245.26L495.04999999999995 560L216.84999999999997 560L1440 106.84z" fill="rgba(0, 0, 0, .05)"></path><path d="M1440 106.84000000000003L216.8499999999999 560L100.18999999999991 560L1440 47.03000000000003z" fill="rgba(0, 0, 0, .025)"></path></g><defs><mask id="SvgjsMask1694"><rect width="1440" height="560" fill="#ffffff"></rect></mask><radialGradient cx="50%" cy="50%" r="772.53" gradientUnits="userSpaceOnUse" id="SvgjsRadialGradient1695"><stop stop-color="rgba(2, 12, 27, 1)" offset="0"></stop><stop stop-color="rgba(2, 12, 27, 1)" offset="1"></stop></radialGradient></defs></svg>